# xmcd CD database file
# Generated: Sat Jul 26 07:26:40 2003 by KSCD
# 
# Track frame offsets:
#       150
#       11502
#       24152
#       32610
#       39725
#       47617
#       57560
#       67265
#       74927
#       85647
#       97180
#       109565
#       118132
#       127555
#       140147
#       151417
#       163550
#       175832
#       185777
#       194530
#       207692
#
# Disc length: 2887 seconds
#
# Revision: 1
# Processed by: cddbd v1.4PL0 Copyright (c) Steve Scherf et al.
# Submitted via: Kscd 1.3.3
#
DISCID=370b4515
DTITLE=Sons Of The Pioneers - The Essential Collection, Disc 2
DYEAR=1900
DGENRE=
TTITLE0=So Long To The Red River Valley
TTITLE1=Blue Prairie
TTITLE2=Hold That Critter Down
TTITLE3=Howlin' Pup, The - (instrumental)
TTITLE4=When The Prairie Sun Climbs Out Of The Hay
TTITLE5=One More Ride
TTITLE6=Blow, Wind, Blow
TTITLE7=Open Range Ahead
TTITLE8=Song Of The Bandit
TTITLE9=Following The Sun All Day
TTITLE10=Whisperin' Wind
TTITLE11=By A Campfire On The Trail
TTITLE12=Happy Cowboy
TTITLE13=Over The Santa Fe Trail
TTITLE14=Whoopie Ti Yi Yo
TTITLE15=Tumbleweed Trail
TTITLE16=Wending My Way To Wyoming
TTITLE17=Kelly Waltz - (instrumental)
TTITLE18=Down Along The Sleepy Rio Grande
TTITLE19=When The Moon Comes Over Sun Valley
TTITLE20=I'll Take You Home Again Kathleen
EXTD=Sons Of The Pioneers: Bob Nolan (vocals, guitar, bass) - Lloyd Perryman
EXTD=, Karl Farr (vocals, guitar) - Hugh Farr (vocals, fiddle) - Pat Brady (v
EXTD=ocals, bass) - Tim Spencer (vocals).
EXTT0=null
EXTT1=null
EXTT2=null
EXTT3=null
EXTT4=null
EXTT5=null
EXTT6=null
EXTT7=null
EXTT8=null
EXTT9=null
EXTT10=null
EXTT11=null
EXTT12=null
EXTT13=null
EXTT14=null
EXTT15=null
EXTT16=null
EXTT17=null
EXTT18=null
EXTT19=null
EXTT20=null
PLAYORDER=
